<?xml version="1.0" standalone="no"?>
<!DOCTYPE svg PUBLIC "-//W3C//DTD SVG 1.1//EN"
  "http://www.w3.org/Graphics/SVG/1.1/DTD/svg11.dtd">
<svg version="1.1" xmlns="http://www.w3.org/2000/svg" xmlns:xlink="http://www.w3.org/1999/xlink" width="3840" height="2160" viewBox="-1884.4702252061588 -243.59150335692846 2809.9404504123177 1580.5915033569286" id="ccdiagram"><filter id="grayscale"><feColorMatrix type="matrix" values="0.3333 0.3333 0.3333 0 0 0.3333 0.3333 0.3333 0 0 0.3333 0.3333 0.3333 0 0 0 0 0 1 0"></feColorMatrix></filter><defs><style type="text/css">@import url('https://fonts.googleapis.com/css?family=Open+Sans:400,700|Inconsolata:400');</style></defs><g><rect x="-1884.4702252061588" y="-243.59150335692846" width="2809.9404504123177" height="1580.5915033569286" fill="none" id="interactionLayer"></rect><g pointer-events="auto"><g opacity="1"><g><g><polygon points="-90 315, 360 315, 405 360, 405 1260, 360 1305, -90 1305, -135 1260, -135 360" fill="#ffffff" stroke-width="2" stroke="#f5b720"></polygon><polygon points="-90 360, 360 360, 360 1260, -90 1260" fill="#f5b720"></polygon></g></g></g></g><g pointer-events="auto"></g><g pointer-events="auto"></g><g></g><g pointer-events="auto"></g><g></g><g pointer-events="auto"></g><g pointer-events="auto"></g><g pointer-events="none"></g><g pointer-events="auto"><g id="65a3544c-6f1b-413f-82d4-bccc738ac571-f5cb1037-bcca-458c-9a2b-11e1c01d86ba"><g cursor="cell"><line x1="135" y1="810" x2="135" y2="1063" stroke="red" stroke-width="10" opacity="0"></line><line x1="135" y1="810" x2="135" y2="1063" stroke="#000000" stroke-width="4" stroke-linecap="round"></line><polygon points="135 1080, 149 1049, 135 1058, 121 1049, 135 1080" stroke-linejoin="round" fill="#000000" stroke="#000000" stroke-width="1"></polygon></g></g><g id="af7c9dc3-0715-4073-b09e-7dccfccaf6aa-d63631b1-4199-4c3f-a8b0-b91765fe7f29"><g cursor="cell"><line x1="-774" y1="338" x2="-444" y2="338" stroke="red" stroke-width="10" opacity="0"></line><line x1="-774" y1="338" x2="-444" y2="338" stroke="#673ab7" stroke-width="4" stroke-linecap="round"></line><polygon points="-427 338, -458 323, -449 338, -458 352, -427 338" stroke-linejoin="round" fill="#673ab7" stroke="#673ab7" stroke-width="1"></polygon></g></g><g id="c824f40b-cf57-4aff-89d2-99467d1d381e-442f456f-9f2f-4795-a155-c96b0d4b97d7"><g cursor="cell"><line x1="135" y1="-103" x2="135" y2="56" stroke="red" stroke-width="10" opacity="0"></line><line x1="135" y1="-103" x2="135" y2="56" stroke="#000000" stroke-width="4" stroke-linecap="round"></line><polygon points="135 73, 149 42, 135 51, 121 42, 135 73" stroke-linejoin="round" fill="#000000" stroke="#000000" stroke-width="1"></polygon></g></g><g id="44b46b3c-3966-4d67-b312-3ab83181e095-8762a640-6e98-4b8f-b6e9-0d87fc9b2a2c"><g cursor="cell"><line x1="-585" y1="1125" x2="-332" y2="1125" stroke="red" stroke-width="10" opacity="0"></line><line x1="-585" y1="1125" x2="-332" y2="1125" stroke="#e91e63" stroke-width="4" stroke-linecap="round"></line><polygon points="-315 1125, -346 1111, -337 1125, -346 1139, -315 1125" stroke-linejoin="round" fill="#e91e63" stroke="#e91e63" stroke-width="1"></polygon></g></g><g id="8762a640-6e98-4b8f-b6e9-0d87fc9b2a2c-f5cb1037-bcca-458c-9a2b-11e1c01d86ba"><g cursor="cell"><line x1="-315" y1="1125" x2="73" y2="1125" stroke="red" stroke-width="10" opacity="0"></line><line x1="-315" y1="1125" x2="73" y2="1125" stroke="#e91e63" stroke-width="4" stroke-linecap="round"></line><polygon points="90 1125, 59 1111, 68 1125, 59 1139, 90 1125" stroke-linejoin="round" fill="#e91e63" stroke="#e91e63" stroke-width="1"></polygon></g></g><g id="d63631b1-4199-4c3f-a8b0-b91765fe7f29-013096c4-941b-4dd4-af11-8f4a36cef1f7"><g cursor="cell"><line x1="-427" y1="338" x2="-199" y2="338" stroke="red" stroke-width="10" opacity="0"></line><line x1="-427" y1="338" x2="-199" y2="338" stroke="#673ab7" stroke-width="4" stroke-linecap="round"></line><polygon points="-182 338, -213 323, -204 338, -213 352, -182 338" stroke-linejoin="round" fill="#673ab7" stroke="#673ab7" stroke-width="1"></polygon></g></g><g id="fd2e2931-2e60-4444-b89a-dbb28c389919-65a3544c-6f1b-413f-82d4-bccc738ac571"><g cursor="cell"><line x1="135" y1="540" x2="135" y2="703" stroke="red" stroke-width="10" opacity="0"></line><line x1="135" y1="540" x2="135" y2="703" stroke="#000000" stroke-width="4" stroke-linecap="round"></line><polygon points="135 720, 149 689, 135 698, 121 689, 135 720" stroke-linejoin="round" fill="#000000" stroke="#000000" stroke-width="1"></polygon></g></g><g id="442f456f-9f2f-4795-a155-c96b0d4b97d7-fd2e2931-2e60-4444-b89a-dbb28c389919"><g cursor="cell"><line x1="135" y1="243" x2="135" y2="433" stroke="red" stroke-width="10" opacity="0"></line><line x1="135" y1="243" x2="135" y2="433" stroke="#000000" stroke-width="4" stroke-linecap="round"></line><polygon points="135 450, 149 419, 135 428, 121 419, 135 450" stroke-linejoin="round" fill="#000000" stroke="#000000" stroke-width="1"></polygon></g></g><g id="b7f14447-bea4-42cb-beb7-7330f7555d36-6430e72d-4663-40b0-896f-3a70b802bbcc"><g cursor="cell"><line x1="-1202" y1="1125" x2="-962" y2="1125" stroke="red" stroke-width="10" opacity="0"></line><line x1="-1202" y1="1125" x2="-962" y2="1125" stroke="#e91e63" stroke-width="4" stroke-linecap="round"></line><polygon points="-945 1125, -976 1111, -967 1125, -976 1139, -945 1125" stroke-linejoin="round" fill="#e91e63" stroke="#e91e63" stroke-width="1"></polygon></g></g><g id="6430e72d-4663-40b0-896f-3a70b802bbcc-44b46b3c-3966-4d67-b312-3ab83181e095"><g cursor="cell"><line x1="-945" y1="1125" x2="-602" y2="1125" stroke="red" stroke-width="10" opacity="0"></line><line x1="-945" y1="1125" x2="-602" y2="1125" stroke="#e91e63" stroke-width="4" stroke-linecap="round"></line><polygon points="-585 1125, -616 1111, -607 1125, -616 1139, -585 1125" stroke-linejoin="round" fill="#e91e63" stroke="#e91e63" stroke-width="1"></polygon></g></g></g><g pointer-events="auto"><g opacity="1"><g id="fd2e2931-2e60-4444-b89a-dbb28c389919" transform="translate(0 0)"><svg x="90" y="450" width="90" height="90"><path fill="#693cc5" d="M0 0h90v90H0z"></path><g fill="#ffffff"><path d="M32.748 51.528a15.6 15.6 0 0 0 4.704.888 4.308 4.308 0 0 0 2.892-.816 3.072 3.072 0 0 0 .996-2.4 3.144 3.144 0 0 0-.936-2.544 4.8 4.8 0 0 0-3.072-.792 36.06 36.06 0 0 0-3.84.24V44.4l.468-7.404h9.036V39H36l-.324 5.028a13.356 13.356 0 0 1 2.4-.24 5.916 5.916 0 0 1 4.188 1.404 5.076 5.076 0 0 1 1.5 3.888 4.884 4.884 0 0 1-1.752 3.924 6.912 6.912 0 0 1-4.632 1.5 11.436 11.436 0 0 1-4.728-.996zm19.608-7.2h.444a5.544 5.544 0 0 1 3.936 1.272 4.596 4.596 0 0 1 1.44 3.6 4.8 4.8 0 0 1-1.776 3.852 7.2 7.2 0 0 1-4.692 1.452 11.412 11.412 0 0 1-4.596-.996v-1.98a14.88 14.88 0 0 0 4.596.888 4.428 4.428 0 0 0 2.904-.84 2.928 2.928 0 0 0 1.008-2.4q0-2.988-3.78-2.988a21.732 21.732 0 0 0-2.4.12v-1.632L54.636 39h-7.26v-2.028h10.08v1.956z"></path><path d="M45 67.8a1.2 1.2 0 0 1-.6-.168 39.804 39.804 0 0 0-12.576-4.8c-2.532-.456-10.8-2.4-10.8-8.4 0-2.712 1.044-4.512 2.4-6.792a18.792 18.792 0 0 0 3.252-9.852 17.496 17.496 0 0 0-2.856-9.516 1.2 1.2 0 0 1 .084-1.404l1.92-2.4a1.2 1.2 0 0 1 1.524-.288 16.428 16.428 0 0 0 8.1 2.22 14.796 14.796 0 0 0 8.856-2.784 1.2 1.2 0 0 1 1.392 0 14.796 14.796 0 0 0 8.856 2.784 16.428 16.428 0 0 0 8.124-2.232 1.2 1.2 0 0 1 1.524.288l1.92 2.4a1.2 1.2 0 0 1 .084 1.404 17.472 17.472 0 0 0-2.856 9.516c0 4.26 1.728 7.2 3.24 9.852 1.332 2.28 2.4 4.08 2.4 6.792 0 6-8.256 7.98-10.8 8.4a39.804 39.804 0 0 0-12.576 4.8 1.2 1.2 0 0 1-.612.18zM26.28 27.6a19.728 19.728 0 0 1 2.772 10.056c0 4.908-1.98 8.316-3.6 11.052-1.2 2.124-2.04 3.528-2.04 5.592 0 4.272 7.332 5.808 8.808 6.072a41.856 41.856 0 0 1 12.756 4.8 41.856 41.856 0 0 1 12.756-4.8c1.476-.264 8.808-1.8 8.808-6.072 0-2.064-.816-3.468-2.04-5.592-1.596-2.736-3.6-6.144-3.6-11.052A19.728 19.728 0 0 1 63.72 27.6l-.756-.936a18.528 18.528 0 0 1-8.4 2.064 17.316 17.316 0 0 1-9.6-2.76 17.316 17.316 0 0 1-9.6 2.76 18.528 18.528 0 0 1-8.4-2.064z"></path><path d="M45 75a1.2 1.2 0 0 1-.756-.264 36 36 0 0 0-13.5-6c-9.864-1.776-15.756-7.2-15.756-14.4a18.348 18.348 0 0 1 3.18-9.828c1.308-2.244 2.4-4.188 2.4-6.816a12.924 12.924 0 0 0-4.368-9.156 1.2 1.2 0 0 1-.168-1.776c0-.084 7.044-8.532 8.64-10.728a1.2 1.2 0 0 1 .936-.504 1.2 1.2 0 0 1 .984.384 12.408 12.408 0 0 0 8.82 4.392c3.348 0 6-1.488 8.556-4.8a1.296 1.296 0 0 1 1.992 0c2.568 3.36 5.208 4.8 8.556 4.8a12.408 12.408 0 0 0 8.82-4.392 1.2 1.2 0 0 1 .984-.384 1.2 1.2 0 0 1 .936.504c1.596 2.196 8.58 10.644 8.64 10.728a1.2 1.2 0 0 1 .288.924 1.308 1.308 0 0 1-.456.852 12.924 12.924 0 0 0-4.368 9.156c0 2.628 1.128 4.572 2.4 6.816a18.348 18.348 0 0 1 3.18 9.828c0 7.2-5.892 12.624-15.756 14.4a35.652 35.652 0 0 0-13.488 6A1.2 1.2 0 0 1 45 75zM18.732 27.468A15.012 15.012 0 0 1 23.1 37.704c0 3.3-1.404 5.724-2.76 8.064-1.464 2.532-2.856 4.908-2.856 8.58 0 8.784 10.488 11.352 13.704 11.928A37.608 37.608 0 0 1 45 72.204a37.608 37.608 0 0 1 13.8-5.928c3.216-.576 13.704-3.144 13.704-11.928 0-3.672-1.392-6-2.856-8.58-1.356-2.4-2.76-4.8-2.76-8.064a15.012 15.012 0 0 1 4.368-10.236c-1.572-1.908-5.208-6.336-7.116-8.796a14.304 14.304 0 0 1-9.6 4.152 12.192 12.192 0 0 1-9.6-4.632 12.192 12.192 0 0 1-9.6 4.632 14.304 14.304 0 0 1-9.6-4.152c-1.74 2.46-5.436 6.888-7.008 8.796Z"></path></g></svg></g></g><g opacity="1"><g id="65a3544c-6f1b-413f-82d4-bccc738ac571" transform="translate(0 0)"><svg x="90" y="720" width="90" height="90"><path fill="#693cc5" d="M0 0h90v90H0z"></path><g fill="#ffffff"><path d="M55.368 72.804 53.232 71.7a35.7 35.7 0 0 0 2.724-6.792l2.304.672a38.316 38.316 0 0 1-2.892 7.224zM57.6 50.832a38.244 38.244 0 0 0-6.324-18.816l2.004-1.308A40.572 40.572 0 0 1 60 50.688ZM41.772 21.876a36.096 36.096 0 0 0-5.544-3.408l1.092-2.136a38.328 38.328 0 0 1 5.904 3.6zM51.6 53.88a35.892 35.892 0 0 0-13.404-8.4l.744-2.28a38.292 38.292 0 0 1 14.28 8.94zm9.888 14.328a35.07 35.07 0 0 0-1.5-3.42l2.148-1.068a39.252 39.252 0 0 1 1.596 3.6z"></path><path d="m54.684 73.38-.768-2.268a26.88 26.88 0 0 0 7.956-4.284l1.476 1.896a29.232 29.232 0 0 1-8.664 4.656zM16.536 44.4l-.552-2.328a37.5 37.5 0 0 1 8.124-1.068l.06 2.4a35.28 35.28 0 0 0-7.632.996Zm19.68-7.632L34.2 35.46a34.404 34.404 0 0 1 6.444-7.68l1.584 1.812a31.968 31.968 0 0 0-6.012 7.176zM54.06 22.536l-.816-2.256a35.724 35.724 0 0 1 5.556-1.584l.444 2.4a32.28 32.28 0 0 0-5.184 1.44zM30.3 70.8a37.836 37.836 0 0 1-3.084-14.4 26.064 26.064 0 0 1 .744-5.664c.084-.42.18-.852.264-1.296l2.4.468c-.084.456-.18.888-.264 1.32a24 24 0 0 0-.696 5.172 35.472 35.472 0 0 0 2.856 13.536Z"></path><path d="M45 75a30 30 0 0 1-30-30c0-.612 0-1.2.06-1.812a30 30 0 0 1 21.372-26.94 30 30 0 0 1 23.232 2.592 30 30 0 0 1 3.684 49.896A30.24 30.24 0 0 1 45 75Zm0-57.6a27.072 27.072 0 0 0-7.884 1.2A27.6 27.6 0 0 0 17.46 43.356c0 .564-.06 1.104-.06 1.644A27.6 27.6 0 0 0 45 72.6a27.132 27.132 0 0 0 8.904-1.488 26.784 26.784 0 0 0 7.968-4.284A27.6 27.6 0 0 0 45 17.4Z"></path><path d="M47.916 31.116a5.316 5.316 0 1 1 5.316-5.304 5.304 5.304 0 0 1-5.316 5.304zm0-8.22a2.916 2.916 0 1 0 2.916 2.916 2.916 2.916 0 0 0-2.916-2.916zm-16.368 24.96a5.316 5.316 0 1 1 5.316-5.316 5.328 5.328 0 0 1-5.316 5.316zm0-8.232a2.916 2.916 0 1 0 2.916 2.916 2.916 2.916 0 0 0-2.916-2.94ZM57.936 63.24a5.316 5.316 0 1 1 5.304-5.304 5.304 5.304 0 0 1-5.304 5.304zm0-8.22a2.916 2.916 0 1 0 2.904 2.916 2.916 2.916 0 0 0-2.904-2.916z"></path></g></svg></g></g><g opacity="1"><g id="f5cb1037-bcca-458c-9a2b-11e1c01d86ba" transform="translate(0 0)"><svg x="90" y="1080" width="90" height="90"><path fill="#3f8624" d="M0 0h90v90H0z"></path><path fill="#ffffff" d="M73.716 48.072c-.348-1.884-2.484-3.216-3.948-4.164-.468-.3-1.752-.78-1.86-1.2a2.832 2.832 0 0 1 .12-.888l1.2-8.628c.348-2.532.684-5.064 1.032-7.596.312-2.328-.804-3.888-2.7-5.196-3.864-2.676-8.904-3.756-13.452-4.5a67.02 67.02 0 0 0-17.256-.564 48 48 0 0 0-15.036 3.6c-2.568 1.2-5.928 3.072-5.508 6.348 1.2 9.744 2.616 19.464 3.924 29.196l1.8 13.356a4.956 4.956 0 0 0 2.952 3.996c3.72 2.016 8.328 2.592 12.48 2.976A61.8 61.8 0 0 0 54 74.076c3.456-.636 9.888-1.68 10.44-6 .684-5.352 1.44-10.704 2.16-16.044l.264-1.632c1.956.468 7.536 1.464 6.852-2.328zM43.26 17.4c7.2 0 15.444.816 21.9 4.368.996.552 3.312 1.788 2.616 3.252-.696 1.464-2.856 2.196-4.176 2.724a37.056 37.056 0 0 1-5.796 1.62 74.748 74.748 0 0 1-25.992.54 32.16 32.16 0 0 1-11.184-3.276c-.864-.492-2.292-1.38-1.896-2.556a3.6 3.6 0 0 1 1.416-1.512 25.008 25.008 0 0 1 8.64-3.492A60.42 60.42 0 0 1 43.26 17.4zm18.816 50.58c-.18 1.404-2.496 2.1-3.6 2.496a35.52 35.52 0 0 1-7.056 1.584 60.864 60.864 0 0 1-16.044 0 26.688 26.688 0 0 1-9.6-2.604 2.4 2.4 0 0 1-1.44-2.076c-1.2-9.516-2.568-19.032-3.852-28.548l-1.392-10.32a27.912 27.912 0 0 0 8.76 3.072 71.544 71.544 0 0 0 9.972 1.308A77.76 77.76 0 0 0 57.492 31.8a29.124 29.124 0 0 0 9.852-3.288L64.8 47.352a144.516 144.516 0 0 1-17.784-7.2 5.124 5.124 0 0 1-.732-.348c-.324-.24-.24-.12-.396-.492-.3-.684-.372-1.2-1.008-1.764a2.7 2.7 0 1 0-1.488 4.8 4.944 4.944 0 0 0 1.2-.36c.468-.144.468-.12.96.108a152.064 152.064 0 0 0 18 7.392c.924.3.912 0 .912.768a13.788 13.788 0 0 1-.228 1.74l-.768 5.724ZM43.56 39.6c0 .324-.456.288-.576.084-.12-.204.576-.54.576-.084ZM67.2 48l.36-2.652c1.2.684 3.24 1.716 3.78 3.084-1.176.48-3.036-.156-4.14-.432Z"></path></svg></g></g></g><g pointer-events="auto"><g opacity="1"><g id="d63631b1-4199-4c3f-a8b0-b91765fe7f29" transform="translate(0 0)"><svg x="-427" y="338" overflow="visible"><g transform="scale(0.1415000000000002) "><svg x="-976" y="-1032" overflow="visible"><image xlink:href="https://images.cloudcraft.co/713cf66f-57f0-4658-ae44-40e52f59f58f/Terraform_VerticalLogo_Color_RGB.png" width="1952" height="2064"></image></svg></g></svg></g></g><g opacity="1"><g id="44b46b3c-3966-4d67-b312-3ab83181e095" transform="translate(0 0)"><svg x="-585" y="1125" overflow="visible"><g transform="scale(0.1415000000000002) "><svg x="-400" y="-400" width="800" height="800"><svg width="800" height="800" viewBox="0 0 24 24"><path d="M10.984 13.836a.5.5 0 0 1-.353-.146l-.745-.743a.5.5 0 1 1 .706-.708l.392.391 1.181-1.18a.5.5 0 0 1 .708.707l-1.535 1.533a.504.504 0 0 1-.354.146zm9.353-.147 1.534-1.532a.5.5 0 0 0-.707-.707l-1.181 1.18-.392-.391a.5.5 0 1 0-.706.708l.746.743a.497.497 0 0 0 .706-.001zM4.527 7.452l2.557-1.585A1 1 0 0 0 7.09 4.17L4.533 2.56A1 1 0 0 0 3 3.406v3.196a1.001 1.001 0 0 0 1.527.85zm2.03-2.436L4 6.602V3.406l2.557 1.61zM24 12.5c0 1.93-1.57 3.5-3.5 3.5a3.503 3.503 0 0 1-3.46-3h-2.08a3.503 3.503 0 0 1-3.46 3 3.502 3.502 0 0 1-3.46-3h-.558c-.972 0-1.85-.399-2.482-1.042V17c0 1.654 1.346 3 3 3h.04c.244-1.693 1.7-3 3.46-3 1.93 0 3.5 1.57 3.5 3.5S13.43 24 11.5 24a3.502 3.502 0 0 1-3.46-3H8c-2.206 0-4-1.794-4-4V9.899A5.008 5.008 0 0 1 0 5c0-2.757 2.243-5 5-5s5 2.243 5 5a5.005 5.005 0 0 1-4.952 4.998A2.482 2.482 0 0 0 7.482 12h.558c.244-1.693 1.7-3 3.46-3a3.502 3.502 0 0 1 3.46 3h2.08a3.503 3.503 0 0 1 3.46-3c1.93 0 3.5 1.57 3.5 3.5zm-15 8c0 1.378 1.122 2.5 2.5 2.5s2.5-1.122 2.5-2.5-1.122-2.5-2.5-2.5S9 19.122 9 20.5zM5 9c2.206 0 4-1.794 4-4S7.206 1 5 1 1 2.794 1 5s1.794 4 4 4zm9 3.5c0-1.378-1.122-2.5-2.5-2.5S9 11.122 9 12.5s1.122 2.5 2.5 2.5 2.5-1.122 2.5-2.5zm9 0c0-1.378-1.122-2.5-2.5-2.5S18 11.122 18 12.5s1.122 2.5 2.5 2.5 2.5-1.122 2.5-2.5zm-13 8a.5.5 0 1 0 1 0 .5.5 0 0 0-1 0zm2 0a.5.5 0 1 0 1 0 .5.5 0 0 0-1 0zm12 0c0 1.93-1.57 3.5-3.5 3.5a3.503 3.503 0 0 1-3.46-3.002c-.007.001-.013.005-.021.005l-.506.017h-.017a.5.5 0 0 1-.016-.999l.506-.017c.018-.002.035.006.052.007A3.503 3.503 0 0 1 20.5 17c1.93 0 3.5 1.57 3.5 3.5zm-1 0c0-1.378-1.122-2.5-2.5-2.5S18 19.122 18 20.5s1.122 2.5 2.5 2.5 2.5-1.122 2.5-2.5z"></path></svg></svg></g></svg></g></g><g opacity="1"><g id="8762a640-6e98-4b8f-b6e9-0d87fc9b2a2c" transform="translate(0 0)"><svg x="-315" y="1125" overflow="visible"><g transform="scale(0.1415000000000002) "><svg x="-400" y="-400" width="800" height="800"><svg width="800" height="800" viewBox="0 0 24 24"><path d="M10.984 13.836a.5.5 0 0 1-.353-.146l-.745-.743a.5.5 0 1 1 .706-.708l.392.391 1.181-1.18a.5.5 0 0 1 .708.707l-1.535 1.533a.504.504 0 0 1-.354.146zm9.353-.147 1.534-1.532a.5.5 0 0 0-.707-.707l-1.181 1.18-.392-.391a.5.5 0 1 0-.706.708l.746.743a.497.497 0 0 0 .706-.001zM4.527 7.452l2.557-1.585A1 1 0 0 0 7.09 4.17L4.533 2.56A1 1 0 0 0 3 3.406v3.196a1.001 1.001 0 0 0 1.527.85zm2.03-2.436L4 6.602V3.406l2.557 1.61zM24 12.5c0 1.93-1.57 3.5-3.5 3.5a3.503 3.503 0 0 1-3.46-3h-2.08a3.503 3.503 0 0 1-3.46 3 3.502 3.502 0 0 1-3.46-3h-.558c-.972 0-1.85-.399-2.482-1.042V17c0 1.654 1.346 3 3 3h.04c.244-1.693 1.7-3 3.46-3 1.93 0 3.5 1.57 3.5 3.5S13.43 24 11.5 24a3.502 3.502 0 0 1-3.46-3H8c-2.206 0-4-1.794-4-4V9.899A5.008 5.008 0 0 1 0 5c0-2.757 2.243-5 5-5s5 2.243 5 5a5.005 5.005 0 0 1-4.952 4.998A2.482 2.482 0 0 0 7.482 12h.558c.244-1.693 1.7-3 3.46-3a3.502 3.502 0 0 1 3.46 3h2.08a3.503 3.503 0 0 1 3.46-3c1.93 0 3.5 1.57 3.5 3.5zm-15 8c0 1.378 1.122 2.5 2.5 2.5s2.5-1.122 2.5-2.5-1.122-2.5-2.5-2.5S9 19.122 9 20.5zM5 9c2.206 0 4-1.794 4-4S7.206 1 5 1 1 2.794 1 5s1.794 4 4 4zm9 3.5c0-1.378-1.122-2.5-2.5-2.5S9 11.122 9 12.5s1.122 2.5 2.5 2.5 2.5-1.122 2.5-2.5zm9 0c0-1.378-1.122-2.5-2.5-2.5S18 11.122 18 12.5s1.122 2.5 2.5 2.5 2.5-1.122 2.5-2.5zm-13 8a.5.5 0 1 0 1 0 .5.5 0 0 0-1 0zm2 0a.5.5 0 1 0 1 0 .5.5 0 0 0-1 0zm12 0c0 1.93-1.57 3.5-3.5 3.5a3.503 3.503 0 0 1-3.46-3.002c-.007.001-.013.005-.021.005l-.506.017h-.017a.5.5 0 0 1-.016-.999l.506-.017c.018-.002.035.006.052.007A3.503 3.503 0 0 1 20.5 17c1.93 0 3.5 1.57 3.5 3.5zm-1 0c0-1.378-1.122-2.5-2.5-2.5S18 19.122 18 20.5s1.122 2.5 2.5 2.5 2.5-1.122 2.5-2.5z"></path></svg></svg></g></svg></g></g><g opacity="1"><g id="6430e72d-4663-40b0-896f-3a70b802bbcc" transform="translate(0 0)"><svg x="-945" y="1125" overflow="visible"><g transform="scale(0.2830000000000002) "><svg x="-400" y="-400" width="800" height="800"><svg width="800" height="800" viewBox="0 0 24 24"><path d="M10.984 13.836a.5.5 0 0 1-.353-.146l-.745-.743a.5.5 0 1 1 .706-.708l.392.391 1.181-1.18a.5.5 0 0 1 .708.707l-1.535 1.533a.504.504 0 0 1-.354.146zm9.353-.147 1.534-1.532a.5.5 0 0 0-.707-.707l-1.181 1.18-.392-.391a.5.5 0 1 0-.706.708l.746.743a.497.497 0 0 0 .706-.001zM4.527 7.452l2.557-1.585A1 1 0 0 0 7.09 4.17L4.533 2.56A1 1 0 0 0 3 3.406v3.196a1.001 1.001 0 0 0 1.527.85zm2.03-2.436L4 6.602V3.406l2.557 1.61zM24 12.5c0 1.93-1.57 3.5-3.5 3.5a3.503 3.503 0 0 1-3.46-3h-2.08a3.503 3.503 0 0 1-3.46 3 3.502 3.502 0 0 1-3.46-3h-.558c-.972 0-1.85-.399-2.482-1.042V17c0 1.654 1.346 3 3 3h.04c.244-1.693 1.7-3 3.46-3 1.93 0 3.5 1.57 3.5 3.5S13.43 24 11.5 24a3.502 3.502 0 0 1-3.46-3H8c-2.206 0-4-1.794-4-4V9.899A5.008 5.008 0 0 1 0 5c0-2.757 2.243-5 5-5s5 2.243 5 5a5.005 5.005 0 0 1-4.952 4.998A2.482 2.482 0 0 0 7.482 12h.558c.244-1.693 1.7-3 3.46-3a3.502 3.502 0 0 1 3.46 3h2.08a3.503 3.503 0 0 1 3.46-3c1.93 0 3.5 1.57 3.5 3.5zm-15 8c0 1.378 1.122 2.5 2.5 2.5s2.5-1.122 2.5-2.5-1.122-2.5-2.5-2.5S9 19.122 9 20.5zM5 9c2.206 0 4-1.794 4-4S7.206 1 5 1 1 2.794 1 5s1.794 4 4 4zm9 3.5c0-1.378-1.122-2.5-2.5-2.5S9 11.122 9 12.5s1.122 2.5 2.5 2.5 2.5-1.122 2.5-2.5zm9 0c0-1.378-1.122-2.5-2.5-2.5S18 11.122 18 12.5s1.122 2.5 2.5 2.5 2.5-1.122 2.5-2.5zm-13 8a.5.5 0 1 0 1 0 .5.5 0 0 0-1 0zm2 0a.5.5 0 1 0 1 0 .5.5 0 0 0-1 0zm12 0c0 1.93-1.57 3.5-3.5 3.5a3.503 3.503 0 0 1-3.46-3.002c-.007.001-.013.005-.021.005l-.506.017h-.017a.5.5 0 0 1-.016-.999l.506-.017c.018-.002.035.006.052.007A3.503 3.503 0 0 1 20.5 17c1.93 0 3.5 1.57 3.5 3.5zm-1 0c0-1.378-1.122-2.5-2.5-2.5S18 19.122 18 20.5s1.122 2.5 2.5 2.5 2.5-1.122 2.5-2.5z"></path></svg></svg></g></svg></g></g></g><g pointer-events="auto"><g opacity="1"><g id="af7c9dc3-0715-4073-b09e-7dccfccaf6aa" transform="translate(0 0)"><svg x="-832" y="338" overflow="visible"><g transform="scale(4.264961199760036) "><circle cx="0" cy="0" fill="transparent" r="23"></circle><svg width="27" height="32" x="-13.5" y="-16" style="fill: rgb(103, 58, 183);"><svg xmlns="http://www.w3.org/2000/svg" width="27" height="32" viewBox="0 0 27 32"><path d="M13.714 2.286c7.571 0 13.714 6.143 13.714 13.714 0 6.054-3.929 11.196-9.375 13.018-.696.125-.946-.304-.946-.661 0-.446.018-1.929.018-3.768 0-1.286-.429-2.107-.929-2.536 3.054-.339 6.268-1.5 6.268-6.768 0-1.5-.536-2.714-1.411-3.679.143-.357.607-1.75-.143-3.643-1.143-.357-3.768 1.411-3.768 1.411a12.895 12.895 0 0 0-6.858 0S7.659 7.606 6.516 7.963c-.75 1.893-.286 3.286-.143 3.643-.875.964-1.411 2.179-1.411 3.679 0 5.25 3.196 6.429 6.25 6.768-.393.357-.75.964-.875 1.839-.786.357-2.786.964-3.982-1.143-.75-1.304-2.107-1.411-2.107-1.411-1.339-.018-.089.839-.089.839.893.411 1.518 2 1.518 2 .804 2.446 4.625 1.625 4.625 1.625 0 1.143.018 2.214.018 2.554 0 .357-.25.786-.946.661-5.446-1.821-9.375-6.964-9.375-13.018 0-7.571 6.143-13.714 13.714-13.714zM5.196 21.982c.036-.071-.018-.161-.125-.214-.107-.036-.196-.018-.232.036-.036.071.018.161.125.214.089.054.196.036.232-.036zm.554.607c.071-.054.054-.179-.036-.286-.089-.089-.214-.125-.286-.054-.071.054-.054.179.036.286.089.089.214.125.286.054zm.536.804c.089-.071.089-.214 0-.339-.071-.125-.214-.179-.304-.107-.089.054-.089.196 0 .321s.232.179.304.125zm.75.75c.071-.071.036-.232-.071-.339-.125-.125-.286-.143-.357-.054-.089.071-.054.232.071.339.125.125.286.143.357.054zm1.018.446c.036-.107-.071-.232-.232-.286-.143-.036-.304.018-.339.125s.071.232.232.268c.143.054.304 0 .339-.107zm1.125.09c0-.125-.143-.214-.304-.196-.161 0-.286.089-.286.196 0 .125.125.214.304.196.161 0 .286-.089.286-.196zm1.035-.179c-.018-.107-.161-.179-.321-.161-.161.036-.268.143-.25.268.018.107.161.179.321.143s.268-.143.25-.25z"></path></svg></svg></g></svg></g></g><g opacity="1"><g id="013096c4-941b-4dd4-af11-8f4a36cef1f7" transform="translate(0 0)"><svg x="-112" y="338" overflow="visible"><g transform="scale(1.3975424859373686) "><circle cx="0" cy="0" fill="transparent" r="40"></circle><svg width="100" height="100" x="-50" y="-50" style="fill: rgb(255, 255, 255);"><svg xmlns="http://www.w3.org/2000/svg" width="100" height="100" data-name="Layer 1" viewBox="0 0 100 100"><path fill="#9d5125" d="M85.23 58v3.19C85.23 67 78.85 73 71 73H29c-7.85 0-14.23-6-14.23-11.81V58Z"></path><path fill="#f58535" d="M41.89 26.9a18 18 0 0 1 16.42 10.56 9.14 9.14 0 0 1 14.29 7.18c7.1.59 12.63 7.44 12.63 12.88v1.18c0 5.85-6.38 11.78-14.26 11.78H29c-7.86 0-14.24-5.93-14.24-11.78v-1.17c0-4.51 3.79-10.71 9.12-12.25v-.51A17.94 17.94 0 0 1 41.89 26.9Z"></path><path fill="#fff" d="m32.42 47.81-4.71 16.45h2.76l1.06-4h4.85l1 4h2.76l-4.33-16.45ZM32 58.13 34 50l1.9 8.11ZM51.99 60.66h-.04l-2.23-12.85h-2.78l-2.18 12.78h-.05l-2.17-12.78h-2.67l3.19 16.45h3.07l2.11-12.39h.05l2.13 12.39h3.06l3.29-16.45h-2.62l-2.16 12.85zM65.28 55.28l-1.79-.65C61.74 54 61 53.25 61 51.84a2.11 2.11 0 0 1 2.22-2.37 2.07 2.07 0 0 1 2.32 2.38v.35h2.65v-.37c0-1.7-.44-4.33-4.68-4.33-3.11 0-5.15 1.66-5.15 4.66 0 2.35 1 3.59 3.45 4.51l1.81.63A2.76 2.76 0 0 1 66 60.2a2.34 2.34 0 0 1-2.51 2.4c-1.83 0-2.71-1-2.71-3v-.42h-2.64v.39c0 2.3.93 5 5 5 3.34 0 5.48-1.45 5.48-4.95.03-2.25-1-3.52-3.34-4.34Z"></path></svg></svg></g></svg></g></g><g opacity="1"><g id="b7f14447-bea4-42cb-beb7-7330f7555d36" transform="translate(0 0)"><svg x="-1260" y="1125" overflow="visible"><g transform="scale(4.264961199760036) "><circle cx="0" cy="0" fill="transparent" r="23"></circle><svg width="27" height="32" x="-13.5" y="-16" style="fill: rgb(233, 30, 99);"><svg xmlns="http://www.w3.org/2000/svg" width="27" height="32" viewBox="0 0 27 32"><path d="M13.714 2.286c7.571 0 13.714 6.143 13.714 13.714 0 6.054-3.929 11.196-9.375 13.018-.696.125-.946-.304-.946-.661 0-.446.018-1.929.018-3.768 0-1.286-.429-2.107-.929-2.536 3.054-.339 6.268-1.5 6.268-6.768 0-1.5-.536-2.714-1.411-3.679.143-.357.607-1.75-.143-3.643-1.143-.357-3.768 1.411-3.768 1.411a12.895 12.895 0 0 0-6.858 0S7.659 7.606 6.516 7.963c-.75 1.893-.286 3.286-.143 3.643-.875.964-1.411 2.179-1.411 3.679 0 5.25 3.196 6.429 6.25 6.768-.393.357-.75.964-.875 1.839-.786.357-2.786.964-3.982-1.143-.75-1.304-2.107-1.411-2.107-1.411-1.339-.018-.089.839-.089.839.893.411 1.518 2 1.518 2 .804 2.446 4.625 1.625 4.625 1.625 0 1.143.018 2.214.018 2.554 0 .357-.25.786-.946.661-5.446-1.821-9.375-6.964-9.375-13.018 0-7.571 6.143-13.714 13.714-13.714zM5.196 21.982c.036-.071-.018-.161-.125-.214-.107-.036-.196-.018-.232.036-.036.071.018.161.125.214.089.054.196.036.232-.036zm.554.607c.071-.054.054-.179-.036-.286-.089-.089-.214-.125-.286-.054-.071.054-.054.179.036.286.089.089.214.125.286.054zm.536.804c.089-.071.089-.214 0-.339-.071-.125-.214-.179-.304-.107-.089.054-.089.196 0 .321s.232.179.304.125zm.75.75c.071-.071.036-.232-.071-.339-.125-.125-.286-.143-.357-.054-.089.071-.054.232.071.339.125.125.286.143.357.054zm1.018.446c.036-.107-.071-.232-.232-.286-.143-.036-.304.018-.339.125s.071.232.232.268c.143.054.304 0 .339-.107zm1.125.09c0-.125-.143-.214-.304-.196-.161 0-.286.089-.286.196 0 .125.125.214.304.196.161 0 .286-.089.286-.196zm1.035-.179c-.018-.107-.161-.179-.321-.161-.161.036-.268.143-.25.268.018.107.161.179.321.143s.268-.143.25-.25z"></path></svg></svg></g></svg></g></g><g opacity="1"><g id="442f456f-9f2f-4795-a155-c96b0d4b97d7" transform="translate(0 0)"><svg x="135" y="158" overflow="visible"><g transform="scale(5.331201499700045) "><circle cx="0" cy="0" fill="transparent" r="24"></circle><svg width="34" height="32" x="-17" y="-16" style="fill: rgb(99, 157, 235);"><svg xmlns="http://www.w3.org/2000/svg" width="34" height="32" viewBox="0 0 34 32"><path d="M34.286 20.571a6.858 6.858 0 0 1-6.857 6.857H8c-4.411 0-8-3.589-8-8a7.993 7.993 0 0 1 4.607-7.232c-.018-.25-.036-.518-.036-.768a9.137 9.137 0 0 1 9.143-9.143c3.821 0 7.089 2.339 8.464 5.679a4.439 4.439 0 0 1 2.964-1.107 4.58 4.58 0 0 1 4.571 4.571 4.49 4.49 0 0 1-.732 2.464c3.036.714 5.304 3.429 5.304 6.679z"></path></svg></svg></g></svg></g></g><g opacity="1"><g id="c824f40b-cf57-4aff-89d2-99467d1d381e" transform="translate(0 0)"><svg x="135" y="-157" overflow="visible"><g transform="scale(3.4119689598080285) "><circle cx="0" cy="0" fill="transparent" r="23"></circle><svg width="27" height="32" x="-13.5" y="-16" style="fill: rgb(0, 0, 0);"><svg xmlns="http://www.w3.org/2000/svg" width="27" height="32" viewBox="0 0 27 32"><path d="M21.446 14c2.518.732 5.982 3.214 5.982 11.339 0 3.679-2.732 6.661-6.089 6.661H6.089C2.732 32 0 29.018 0 25.339 0 17.214 3.464 14.732 5.982 14a9.04 9.04 0 0 1-1.411-4.857C4.571 4.107 8.678 0 13.714 0s9.143 4.107 9.143 9.143A9.04 9.04 0 0 1 21.446 14zM13.714 2.286c-3.786 0-6.857 3.071-6.857 6.857S9.928 16 13.714 16s6.857-3.071 6.857-6.857-3.071-6.857-6.857-6.857zm7.625 27.428c2.089 0 3.804-1.946 3.804-4.375 0-5.625-1.893-9.143-5.429-9.321-1.607 1.411-3.696 2.268-6 2.268s-4.393-.857-6-2.268c-3.536.179-5.429 3.696-5.429 9.321 0 2.429 1.714 4.375 3.804 4.375h15.25z"></path></svg></svg></g></svg></g></g></g><g pointer-events="auto"><g opacity="1"><g id="3bc03756-12a9-4d03-b873-e0e78d6bbedd"><svg x="-990" y="405" overflow="visible"><text stroke="#ffffff" stroke-width="4" font-family="Open Sans" y="36.5" font-size="25pt" fill="#000000" font-weight="bold" transform="" xml:space="preserve"><tspan x="8" dy="0">Github Repo</tspan><tspan x="8" dy="1.1em">prod_infrastructure</tspan></text><text font-family="Open Sans" y="36.5" font-size="25pt" fill="#000000" font-weight="bold" transform="" xml:space="preserve"><tspan x="8" dy="0">Github Repo</tspan><tspan x="8" dy="1.1em">prod_infrastructure</tspan></text></svg></g></g><g opacity="1"><g id="15895829-a8f2-46b4-9ce5-83420e0a84cb"><svg x="-1057" y="1238" overflow="visible"><text stroke="#ffffff" stroke-width="4" font-family="Open Sans" y="36.5" font-size="25pt" fill="#000000" font-weight="bold" transform="" xml:space="preserve"><tspan x="8" dy="0">Github Actions</tspan></text><text font-family="Open Sans" y="36.5" font-size="25pt" fill="#000000" font-weight="bold" transform="" xml:space="preserve"><tspan x="8" dy="0">Github Actions</tspan></text></svg></g></g><g opacity="1"><g id="bc137090-5373-4b61-9704-3f54b82961c4"><svg x="-675" y="1193" overflow="visible"><text stroke="#ffffff" stroke-width="4" font-family="Open Sans" y="36.5" font-size="25pt" fill="#000000" font-weight="bold" transform="" xml:space="preserve"><tspan x="8" dy="0">Lint / Test</tspan></text><text font-family="Open Sans" y="36.5" font-size="25pt" fill="#000000" font-weight="bold" transform="" xml:space="preserve"><tspan x="8" dy="0">Lint / Test</tspan></text></svg></g></g><g opacity="1"><g id="2e8d6728-4a7e-4ace-9b2c-4fe2d9706e8c"><svg x="-382" y="1193" overflow="visible"><text stroke="#ffffff" stroke-width="4" font-family="Open Sans" y="36.5" font-size="25pt" fill="#000000" font-weight="bold" transform="" xml:space="preserve"><tspan x="8" dy="0">Deploy</tspan></text><text font-family="Open Sans" y="36.5" font-size="25pt" fill="#000000" font-weight="bold" transform="" xml:space="preserve"><tspan x="8" dy="0">Deploy</tspan></text></svg></g></g><g opacity="1"><g id="74a25630-c98d-45c6-8ece-ee60990c79ec"><svg x="23" y="1170" overflow="visible"><text stroke="#ffffff" stroke-width="4" font-family="Open Sans" y="36.5" font-size="25pt" fill="#000000" font-weight="bold" transform="" xml:space="preserve"><tspan x="8" dy="0">zacharyhill.co</tspan></text><text font-family="Open Sans" y="36.5" font-size="25pt" fill="#000000" font-weight="bold" transform="" xml:space="preserve"><tspan x="8" dy="0">zacharyhill.co</tspan></text></svg></g></g><g opacity="1"><g id="4458e01b-50d3-40e2-921a-9fe0b7a44238"><svg x="23" y="810" overflow="visible"><text stroke="#ffffff" stroke-width="4" font-family="Open Sans" y="36.5" font-size="25pt" fill="#000000" font-weight="bold" transform="" xml:space="preserve"><tspan x="8" dy="0">CloudFront</tspan></text><text font-family="Open Sans" y="36.5" font-size="25pt" fill="#000000" font-weight="bold" transform="" xml:space="preserve"><tspan x="8" dy="0">CloudFront</tspan></text></svg></g></g><g opacity="1"><g id="556c8794-c232-46f7-a10d-da642df13bd0"><svg x="-540" y="450" overflow="visible"><text stroke="#ffffff" stroke-width="4" font-family="Open Sans" y="36.5" font-size="25pt" fill="#000000" font-weight="bold" transform="" xml:space="preserve"><tspan x="8" dy="0">prod_infrastructure</tspan></text><text font-family="Open Sans" y="36.5" font-size="25pt" fill="#000000" font-weight="bold" transform="" xml:space="preserve"><tspan x="8" dy="0">prod_infrastructure</tspan></text></svg></g></g><g opacity="1"><g id="a277052f-c17e-444c-baaf-cb16279bd606"><svg x="-1372" y="1193" overflow="visible"><text stroke="#ffffff" stroke-width="4" font-family="Open Sans" y="36.5" font-size="25pt" fill="#000000" font-weight="bold" transform="" xml:space="preserve"><tspan x="8" dy="0">Github Repo</tspan><tspan x="8" dy="1.1em">resume_website</tspan></text><text font-family="Open Sans" y="36.5" font-size="25pt" fill="#000000" font-weight="bold" transform="" xml:space="preserve"><tspan x="8" dy="0">Github Repo</tspan><tspan x="8" dy="1.1em">resume_website</tspan></text></svg></g></g><g opacity="1"><g id="25f4d212-ee71-4650-b1c3-2a81e6c5acfc"><svg x="45" y="540" overflow="visible"><text stroke="#ffffff" stroke-width="4" font-family="Open Sans" y="36.5" font-size="25pt" fill="#000000" font-weight="bold" transform="" xml:space="preserve"><tspan x="8" dy="0">Route 53</tspan></text><text font-family="Open Sans" y="36.5" font-size="25pt" fill="#000000" font-weight="bold" transform="" xml:space="preserve"><tspan x="8" dy="0">Route 53</tspan></text></svg></g></g><g opacity="1"><g id="3190a431-5d47-45b7-bef6-b86f5276ef5a"><svg x="-67" y="315" overflow="visible"><text stroke="#ffffff" stroke-width="4" font-family="Open Sans" y="36.5" font-size="25pt" fill="#000000" font-weight="bold" transform="" xml:space="preserve"><tspan x="8" dy="0">Production</tspan></text><text font-family="Open Sans" y="36.5" font-size="25pt" fill="#000000" font-weight="bold" transform="" xml:space="preserve"><tspan x="8" dy="0">Production</tspan></text></svg></g></g></g></g></svg>